<svg width="308" height="36" viewBox="0 0 308 36" fill="none" xmlns="http://www.w3.org/2000/svg">
<path d="M291.954 0.051178L307.602 35.8112H303.042L298.194 24.7712H281.538L276.69 35.8112H275.25L290.898 0.051178H291.954ZM297.57 23.3792L289.842 5.71518L282.162 23.3792H297.57Z" fill="#7F673C"/>
<path d="M269.798 35.8112H265.43V3.50718L250.502 35.8112H249.014L233.798 3.02718V35.8112H232.406V0.051178H237.254L251.366 30.6272L265.43 0.243178V0.051178H269.798V35.8112Z" fill="#7F673C"/>
<path d="M209.242 0.051178C211.674 0.051178 213.962 0.515179 216.106 1.44318C218.25 2.37118 220.122 3.65118 221.722 5.28318C223.322 6.88318 224.586 8.77118 225.514 10.9472C226.442 13.1232 226.906 15.4432 226.906 17.9072C226.906 20.3712 226.442 22.6912 225.514 24.8672C224.586 27.0432 223.322 28.9472 221.722 30.5792C220.122 32.1792 218.25 33.4592 216.106 34.4192C213.962 35.3472 211.674 35.8112 209.242 35.8112C206.81 35.8112 204.522 35.3472 202.378 34.4192C200.234 33.4592 198.362 32.1792 196.762 30.5792C195.162 28.9472 193.898 27.0432 192.97 24.8672C192.042 22.6912 191.578 20.3712 191.578 17.9072C191.578 15.4432 192.042 13.1232 192.97 10.9472C193.898 8.77118 195.162 6.88318 196.762 5.28318C198.362 3.65118 200.234 2.37118 202.378 1.44318C204.522 0.515179 206.81 0.051178 209.242 0.051178ZM209.242 34.3712C211.514 34.3712 213.482 33.9072 215.146 32.9792C216.81 32.0192 218.186 30.7712 219.274 29.2352C220.362 27.6992 221.162 25.9552 221.674 24.0032C222.218 22.0192 222.49 19.9872 222.49 17.9072C222.49 15.8592 222.218 13.8432 221.674 11.8592C221.162 9.87518 220.362 8.11518 219.274 6.57918C218.186 5.04318 216.81 3.81118 215.146 2.88318C213.482 1.92318 211.514 1.44318 209.242 1.44318C206.97 1.44318 205.002 1.92318 203.338 2.88318C201.674 3.81118 200.298 5.04318 199.21 6.57918C198.122 8.11518 197.306 9.87518 196.762 11.8592C196.25 13.8432 195.994 15.8592 195.994 17.9072C195.994 19.9872 196.25 22.0192 196.762 24.0032C197.306 25.9552 198.122 27.6992 199.21 29.2352C200.298 30.7712 201.674 32.0192 203.338 32.9792C205.002 33.9072 206.97 34.3712 209.242 34.3712Z" fill="#7F673C"/>
<path d="M168.414 0.051178C170.846 0.051178 173.134 0.515179 175.278 1.44318C177.422 2.37118 179.294 3.65118 180.894 5.28318C182.494 6.88318 183.758 8.77118 184.686 10.9472C185.614 13.1232 186.078 15.4432 186.078 17.9072C186.078 20.3712 185.614 22.6912 184.686 24.8672C183.758 27.0432 182.494 28.9472 180.894 30.5792C179.294 32.1792 177.422 33.4592 175.278 34.4192C173.134 35.3472 170.846 35.8112 168.414 35.8112C165.982 35.8112 163.694 35.3472 161.55 34.4192C159.406 33.4592 157.534 32.1792 155.934 30.5792C154.334 28.9472 153.07 27.0432 152.142 24.8672C151.214 22.6912 150.75 20.3712 150.75 17.9072C150.75 15.4432 151.214 13.1232 152.142 10.9472C153.07 8.77118 154.334 6.88318 155.934 5.28318C157.534 3.65118 159.406 2.37118 161.55 1.44318C163.694 0.515179 165.982 0.051178 168.414 0.051178ZM168.414 34.3712C170.686 34.3712 172.654 33.9072 174.318 32.9792C175.982 32.0192 177.358 30.7712 178.446 29.2352C179.534 27.6992 180.334 25.9552 180.846 24.0032C181.39 22.0192 181.662 19.9872 181.662 17.9072C181.662 15.8592 181.39 13.8432 180.846 11.8592C180.334 9.87518 179.534 8.11518 178.446 6.57918C177.358 5.04318 175.982 3.81118 174.318 2.88318C172.654 1.92318 170.686 1.44318 168.414 1.44318C166.142 1.44318 164.174 1.92318 162.51 2.88318C160.846 3.81118 159.47 5.04318 158.382 6.57918C157.294 8.11518 156.478 9.87518 155.934 11.8592C155.422 13.8432 155.166 15.8592 155.166 17.9072C155.166 19.9872 155.422 22.0192 155.934 24.0032C156.478 25.9552 157.294 27.6992 158.382 29.2352C159.47 30.7712 160.846 32.0192 162.51 32.9792C164.174 33.9072 166.142 34.3712 168.414 34.3712Z" fill="#7F673C"/>
<path d="M151.84 34.5152V35.9072H127.312V0.051178H131.729V34.5152H151.84Z" fill="#7F673C"/>
<path d="M101.025 1.44318V17.2352H118.209V18.6272H101.025V34.4192H122.145V35.8112H96.6094V0.051178H122.145V1.44318H101.025Z" fill="#AA8C55"/>
<path d="M91.3564 1.44318H77.6284V35.8112H73.2124V1.44318H59.4844V0.051178H91.3564V1.44318Z" fill="#AA8C55"/>
<path d="M44.2871 1.4432C42.9751 1.4112 41.7431 1.5552 40.5911 1.8752C39.4391 2.1952 38.4311 2.6592 37.5671 3.2672C36.7031 3.8752 36.0151 4.5952 35.5031 5.4272C34.9911 6.2592 34.7191 7.1712 34.6871 8.1632C34.6551 9.0912 34.8791 9.9712 35.3591 10.8032C35.8391 11.6352 36.4791 12.4032 37.2791 13.1072C38.0791 13.7792 38.9911 14.3712 40.0151 14.8832C41.0391 15.3952 42.0951 15.7952 43.1831 16.0832C44.9431 16.5632 46.5111 17.1872 47.8871 17.9552C49.2631 18.6912 50.4311 19.5392 51.3911 20.4992C52.3511 21.4592 53.0711 22.4992 53.5511 23.6192C54.0311 24.7392 54.2551 25.8912 54.2231 27.0752C54.1591 28.3232 53.7751 29.5072 53.0711 30.6272C52.3991 31.7152 51.4871 32.6592 50.3351 33.4592C49.2151 34.2592 47.9031 34.8832 46.3991 35.3312C44.8951 35.7792 43.3111 35.9712 41.6471 35.9072H41.5991C39.9991 35.8432 38.4791 35.5712 37.0391 35.0912C35.6311 34.6112 34.3671 33.9552 33.2471 33.1232C32.7031 32.6752 32.2231 32.2272 31.8071 31.7792C31.3911 31.3312 31.0391 30.8352 30.7511 30.2912L30.7031 30.1952L31.8071 29.6192L31.8551 29.7632C32.3991 30.6592 33.1351 31.4752 34.0631 32.2112C34.9591 32.8832 35.9671 33.4112 37.0871 33.7952C38.2391 34.1792 39.4391 34.3872 40.6871 34.4192C41.9991 34.4832 43.2151 34.3552 44.3351 34.0352C45.4871 33.6832 46.4951 33.2032 47.3591 32.5952C48.2231 31.9872 48.9111 31.2672 49.4231 30.4352C49.9351 29.6032 50.2231 28.6912 50.2871 27.6992C50.3191 26.7712 50.0951 25.8912 49.6151 25.0592C49.1351 24.2272 48.4951 23.4752 47.6951 22.8032C46.8951 22.0992 45.9831 21.4912 44.9591 20.9792C43.9351 20.4672 42.8791 20.0672 41.7911 19.7792C40.0311 19.2992 38.4471 18.6912 37.0391 17.9552C35.6631 17.1872 34.4951 16.3232 33.5351 15.3632C32.6071 14.4032 31.8871 13.3792 31.3751 12.2912C30.8951 11.1712 30.6871 10.0192 30.7511 8.8352C30.7831 7.5552 31.1351 6.3712 31.8071 5.2832C32.5111 4.1952 33.4391 3.2512 34.5911 2.4512C35.7431 1.6512 37.0551 1.0432 38.5271 0.6272C40.0311 0.179201 41.6311 -0.0287997 43.3271 0.00319992C44.9591 0.0351995 46.4791 0.2912 47.8871 0.771201C49.3271 1.2512 50.6071 1.9232 51.7271 2.7872C52.2711 3.2032 52.7351 3.6512 53.1191 4.1312C53.5351 4.5792 53.9031 5.0592 54.2231 5.5712L54.2711 5.6672L53.1671 6.2432L53.1191 6.1472C52.5751 5.2512 51.8231 4.4192 50.8631 3.6512C49.9991 2.9792 48.9911 2.4672 47.8391 2.1152C46.7191 1.7312 45.5351 1.5072 44.2871 1.4432Z" fill="#AA8C55"/>
<path d="M4.416 1.44318V17.2352H21.6V18.6272H4.416V34.4192H25.536V35.8112H0V0.051178H25.536V1.44318H4.416Z" fill="#AA8C55"/>
</svg>
